<svg width="64" height="64" viewBox="0 0 64 64" fill="none" xmlns="http://www.w3.org/2000/svg">
  <defs>
    <linearGradient id="aiGradient" x1="0" y1="0" x2="64" y2="64" gradientUnits="userSpaceOnUse">
      <stop stop-color="#6a82fb"/>
      <stop offset="1" stop-color="#fc5c7d"/>
    </linearGradient>
  </defs>
  <circle cx="32" cy="32" r="28" fill="url(#aiGradient)"/>
  <path d="M32 18c-7.7 0-14 6.3-14 14s6.3 14 14 14 14-6.3 14-14-6.3-14-14-14zm0 24c-5.5 0-10-4.5-10-10s4.5-10 10-10 10 4.5 10 10-4.5 10-10 10zm0-8a2 2 0 110-4 2 2 0 010 4z" fill="#fff"/>
</svg>
